<svg width="32" height="32" viewBox="0 0 32 32" xmlns="http://www.w3.org/2000/svg">
  <!-- Fondo blanco -->
  <rect width="32" height="32" fill="white"/>
  
  <!-- Círculo amarillo con borde naranja -->
  <circle cx="16" cy="16" r="14" fill="#FFE066" stroke="#FF8C42" stroke-width="2"/>
  
  <!-- Texto ZIPPY -->
  <text x="16" y="12" text-anchor="middle" font-family="Arial, sans-serif" font-size="6" font-weight="bold" fill="#FF6B35">ZIPPY</text>
  
  <!-- Hamster -->
  <!-- Cuerpo principal -->
  <ellipse cx="16" cy="20" rx="5" ry="4" fill="#D4A574" stroke="#8B4513" stroke-width="1"/>
  
  <!-- Cabeza -->
  <circle cx="16" cy="14" r="4" fill="#D4A574" stroke="#8B4513" stroke-width="1"/>
  
  <!-- Mejillas blancas -->
  <ellipse cx="14" cy="16" rx="1.5" ry="1" fill="white"/>
  <ellipse cx="18" cy="16" rx="1.5" ry="1" fill="white"/>
  
  <!-- Orejas -->
  <circle cx="14" cy="11" r="1.5" fill="#D4A574" stroke="#8B4513" stroke-width="0.5"/>
  <circle cx="18" cy="11" r="1.5" fill="#D4A574" stroke="#8B4513" stroke-width="0.5"/>
  
  <!-- Ojos cerrados -->
  <path d="M 14 12.5 Q 15 11.5 16 12.5" stroke="#8B4513" stroke-width="0.8" fill="none"/>
  <path d="M 16 12.5 Q 17 11.5 18 12.5" stroke="#8B4513" stroke-width="0.8" fill="none"/>
  
  <!-- Nariz triangular rosa -->
  <path d="M 16 15 L 15 16.5 L 17 16.5 Z" fill="#FFB6C1"/>
  
  <!-- Patas -->
  <ellipse cx="14" cy="22" rx="1" ry="1.5" fill="#D4A574" stroke="#8B4513" stroke-width="0.5"/>
  <ellipse cx="18" cy="22" rx="1" ry="1.5" fill="#D4A574" stroke="#8B4513" stroke-width="0.5"/>
  
  <!-- Almohadillas -->
  <circle cx="14" cy="23" r="0.3" fill="#FFB6C1"/>
  <circle cx="18" cy="23" r="0.3" fill="#FFB6C1"/>
</svg>
